<svg xmlns="http://www.w3.org/2000/svg" viewBox="0 0 1200 750" width="1200" height="750">
  <rect width="1200" height="750" fill="#080C14"/>
  <!-- Grid -->
  <g opacity="0.03" stroke="#00E676" stroke-width="0.5">
    <line x1="0" y1="40" x2="1200" y2="40"/><line x1="0" y1="80" x2="1200" y2="80"/>
    <line x1="0" y1="120" x2="1200" y2="120"/><line x1="0" y1="160" x2="1200" y2="160"/>
    <line x1="0" y1="200" x2="1200" y2="200"/><line x1="0" y1="240" x2="1200" y2="240"/>
    <line x1="0" y1="280" x2="1200" y2="280"/><line x1="0" y1="320" x2="1200" y2="320"/>
    <line x1="0" y1="360" x2="1200" y2="360"/><line x1="0" y1="400" x2="1200" y2="400"/>
    <line x1="0" y1="440" x2="1200" y2="440"/><line x1="0" y1="480" x2="1200" y2="480"/>
    <line x1="0" y1="520" x2="1200" y2="520"/><line x1="0" y1="560" x2="1200" y2="560"/>
    <line x1="0" y1="600" x2="1200" y2="600"/><line x1="0" y1="640" x2="1200" y2="640"/>
    <line x1="0" y1="680" x2="1200" y2="680"/><line x1="0" y1="720" x2="1200" y2="720"/>
    <line x1="40" y1="0" x2="40" y2="750"/><line x1="80" y1="0" x2="80" y2="750"/>
    <line x1="120" y1="0" x2="120" y2="750"/><line x1="160" y1="0" x2="160" y2="750"/>
    <line x1="200" y1="0" x2="200" y2="750"/><line x1="240" y1="0" x2="240" y2="750"/>
    <line x1="280" y1="0" x2="280" y2="750"/><line x1="320" y1="0" x2="320" y2="750"/>
    <line x1="360" y1="0" x2="360" y2="750"/><line x1="400" y1="0" x2="400" y2="750"/>
    <line x1="440" y1="0" x2="440" y2="750"/><line x1="480" y1="0" x2="480" y2="750"/>
    <line x1="520" y1="0" x2="520" y2="750"/><line x1="560" y1="0" x2="560" y2="750"/>
    <line x1="600" y1="0" x2="600" y2="750"/><line x1="640" y1="0" x2="640" y2="750"/>
    <line x1="680" y1="0" x2="680" y2="750"/><line x1="720" y1="0" x2="720" y2="750"/>
    <line x1="760" y1="0" x2="760" y2="750"/><line x1="800" y1="0" x2="800" y2="750"/>
    <line x1="840" y1="0" x2="840" y2="750"/><line x1="880" y1="0" x2="880" y2="750"/>
    <line x1="920" y1="0" x2="920" y2="750"/><line x1="960" y1="0" x2="960" y2="750"/>
    <line x1="1000" y1="0" x2="1000" y2="750"/><line x1="1040" y1="0" x2="1040" y2="750"/>
    <line x1="1080" y1="0" x2="1080" y2="750"/><line x1="1120" y1="0" x2="1120" y2="750"/>
    <line x1="1160" y1="0" x2="1160" y2="750"/>
  </g>

  <!-- Header -->
  <rect x="0" y="0" width="1200" height="44" fill="#0E1520"/>
  <line x1="0" y1="44" x2="1200" y2="44" stroke="#1C2A40"/>
  <text x="20" y="27" font-family="Arial" font-weight="700" font-size="14" fill="#EAF1FB">NaijaFinAI</text>
  <text x="106" y="27" font-family="Arial" font-size="11" fill="#4A6080">/ Monitor</text>
  <circle cx="1160" cy="22" r="5" fill="#00E676"/>
  <text x="1172" y="26" font-family="Arial" font-size="10" fill="#00E676">Live</text>

  <!-- Page title -->
  <text x="20" y="70" font-family="Arial" font-weight="700" font-size="18" fill="#EAF1FB">Signal Performance &amp; Drift Monitor</text>
  <text x="20" y="88" font-family="Arial" font-size="11" fill="#4A6080">Rolling window: 500 decisions · Baseline fraud rate: 2.3% · Last updated: just now</text>

  <!-- KPI cards row -->
  <!-- Card 1: PSI -->
  <rect x="20" y="102" width="210" height="72" rx="10" fill="#0E1520" stroke="#1C2A40"/>
  <text x="36" y="122" font-family="Arial" font-size="10" fill="#4A6080">PSI Score</text>
  <text x="36" y="150" font-family="Arial" font-weight="700" font-size="28" fill="#00E676">0.07</text>
  <rect x="36" y="160" width="60" height="10" rx="3" fill="#00E67215" stroke="#00E67630"/>
  <text x="66" y="168" font-family="Arial" font-size="8" fill="#00E676" text-anchor="middle">STABLE</text>

  <!-- Card 2: False positive rate -->
  <rect x="244" y="102" width="210" height="72" rx="10" fill="#0E1520" stroke="#1C2A40"/>
  <text x="260" y="122" font-family="Arial" font-size="10" fill="#4A6080">False Positive Rate</text>
  <text x="260" y="150" font-family="Arial" font-weight="700" font-size="28" fill="#00E676">0.8%</text>
  <rect x="260" y="160" width="80" height="10" rx="3" fill="#00E67215" stroke="#00E67630"/>
  <text x="300" y="168" font-family="Arial" font-size="8" fill="#00E676" text-anchor="middle">WITHIN TARGET</text>

  <!-- Card 3: Recent fraud rate -->
  <rect x="468" y="102" width="210" height="72" rx="10" fill="#0E1520" stroke="#FFB30030"/>
  <text x="484" y="122" font-family="Arial" font-size="10" fill="#4A6080">Recent Fraud Rate</text>
  <text x="484" y="150" font-family="Arial" font-weight="700" font-size="28" fill="#FFB300">4.1%</text>
  <rect x="484" y="160" width="80" height="10" rx="3" fill="#FFB30015" stroke="#FFB30040"/>
  <text x="524" y="168" font-family="Arial" font-size="8" fill="#FFB300" text-anchor="middle">↑ WATCH</text>

  <!-- Card 4: Confirmed fraud -->
  <rect x="692" y="102" width="210" height="72" rx="10" fill="#0E1520" stroke="#1C2A40"/>
  <text x="708" y="122" font-family="Arial" font-size="10" fill="#4A6080">Confirmed Fraud</text>
  <text x="708" y="150" font-family="Arial" font-weight="700" font-size="28" fill="#EAF1FB">23</text>
  <text x="708" y="168" font-family="Arial" font-size="9" fill="#4A6080">of last 500 decisions</text>

  <!-- Card 5: Decisions today -->
  <rect x="916" y="102" width="264" height="72" rx="10" fill="#0E1520" stroke="#1C2A40"/>
  <text x="932" y="122" font-family="Arial" font-size="10" fill="#4A6080">Decisions Today</text>
  <text x="932" y="150" font-family="Arial" font-weight="700" font-size="28" fill="#EAF1FB">1,847</text>
  <text x="932" y="168" font-family="Arial" font-size="9" fill="#4A6080">auto_approve: 1,512 · review: 247 · escalate: 71 · freeze: 17</text>

  <!-- Per-signal precision/recall bars -->
  <text x="20" y="206" font-family="Arial" font-weight="600" font-size="11" fill="#4A6080" letter-spacing="1">PER-SIGNAL PERFORMANCE</text>

  <!-- Signal bars -->
  <g transform="translate(0, 214)">
    <!-- Headers -->
    <text x="20" y="14" font-family="monospace" font-size="9" fill="#2A3F60">SIGNAL</text>
    <text x="380" y="14" font-family="Arial" font-size="9" fill="#2A3F60">PRECISION</text>
    <text x="560" y="14" font-family="Arial" font-size="9" fill="#2A3F60">RECALL</text>
    <text x="740" y="14" font-family="Arial" font-size="9" fill="#2A3F60">F1</text>
    <text x="820" y="14" font-family="Arial" font-size="9" fill="#2A3F60">TRIGGERS</text>
    <line x1="20" y1="20" x2="1160" y2="20" stroke="#1C2A40"/>

    <!-- NIN_BVN_MISMATCH -->
    <text x="20" y="38" font-family="monospace" font-size="10" fill="#00E676">NIN_BVN_MISMATCH</text>
    <rect x="380" y="28" width="160" height="10" rx="3" fill="#1C2A40"/>
    <rect x="380" y="28" width="152" height="10" rx="3" fill="#00E676"/>
    <text x="548" y="37" font-family="Arial" font-size="9" fill="#4A6080">95%</text>
    <rect x="560" y="28" width="160" height="10" rx="3" fill="#1C2A40"/>
    <rect x="560" y="28" width="144" height="10" rx="3" fill="#00E676"/>
    <text x="728" y="37" font-family="Arial" font-size="9" fill="#4A6080">90%</text>
    <rect x="740" y="28" width="60" height="10" rx="3" fill="#1C2A40"/>
    <rect x="740" y="28" width="55" height="10" rx="3" fill="#00E676"/>
    <text x="804" y="37" font-family="Arial" font-size="9" fill="#4A6080">92%</text>
    <text x="820" y="37" font-family="Arial" font-size="9" fill="#4A6080">47</text>

    <!-- SIM_SWAP -->
    <text x="20" y="60" font-family="monospace" font-size="10" fill="#00E676">SIM_SWAP_HIGH_VALUE_USSD</text>
    <rect x="380" y="50" width="160" height="10" rx="3" fill="#1C2A40"/>
    <rect x="380" y="50" width="147" height="10" rx="3" fill="#00E676"/>
    <text x="548" y="59" font-family="Arial" font-size="9" fill="#4A6080">92%</text>
    <rect x="560" y="50" width="160" height="10" rx="3" fill="#1C2A40"/>
    <rect x="560" y="50" width="136" height="10" rx="3" fill="#00E676"/>
    <text x="728" y="59" font-family="Arial" font-size="9" fill="#4A6080">85%</text>
    <rect x="740" y="50" width="60" height="10" rx="3" fill="#1C2A40"/>
    <rect x="740" y="50" width="54" height="10" rx="3" fill="#00E676"/>
    <text x="804" y="59" font-family="Arial" font-size="9" fill="#4A6080">88%</text>
    <text x="820" y="59" font-family="Arial" font-size="9" fill="#4A6080">83</text>

    <!-- CBN_STRUCTURING -->
    <text x="20" y="82" font-family="monospace" font-size="10" fill="#FFB300">CBN_STRUCTURING</text>
    <rect x="380" y="72" width="160" height="10" rx="3" fill="#1C2A40"/>
    <rect x="380" y="72" width="128" height="10" rx="3" fill="#FFB300"/>
    <text x="548" y="81" font-family="Arial" font-size="9" fill="#4A6080">80%</text>
    <rect x="560" y="72" width="160" height="10" rx="3" fill="#1C2A40"/>
    <rect x="560" y="72" width="120" height="10" rx="3" fill="#FFB300"/>
    <text x="728" y="81" font-family="Arial" font-size="9" fill="#4A6080">75%</text>
    <rect x="740" y="72" width="60" height="10" rx="3" fill="#1C2A40"/>
    <rect x="740" y="72" width="46" height="10" rx="3" fill="#FFB300"/>
    <text x="804" y="81" font-family="Arial" font-size="9" fill="#4A6080">77%</text>
    <text x="820" y="81" font-family="Arial" font-size="9" fill="#4A6080">156</text>
    <rect x="840" y="71" width="78" height="12" rx="3" fill="#FFB30015" stroke="#FFB30040"/>
    <text x="879" y="80" font-family="Arial" font-size="8" fill="#FFB300" text-anchor="middle">↑ HIGH FREQ</text>

    <!-- ROUND_TRIP -->
    <text x="20" y="104" font-family="monospace" font-size="10" fill="#00E676">ROUND_TRIP_TRANSFER</text>
    <rect x="380" y="94" width="160" height="10" rx="3" fill="#1C2A40"/>
    <rect x="380" y="94" width="152" height="10" rx="3" fill="#00E676"/>
    <text x="548" y="103" font-family="Arial" font-size="9" fill="#4A6080">95%</text>
    <rect x="560" y="94" width="160" height="10" rx="3" fill="#1C2A40"/>
    <rect x="560" y="94" width="144" height="10" rx="3" fill="#00E676"/>
    <text x="728" y="103" font-family="Arial" font-size="9" fill="#4A6080">90%</text>
    <rect x="740" y="94" width="60" height="10" rx="3" fill="#1C2A40"/>
    <rect x="740" y="94" width="57" height="10" rx="3" fill="#00E676"/>
    <text x="804" y="103" font-family="Arial" font-size="9" fill="#4A6080">93%</text>
    <text x="820" y="103" font-family="Arial" font-size="9" fill="#4A6080">29</text>

    <!-- AGENT_VELOCITY -->
    <text x="20" y="126" font-family="monospace" font-size="10" fill="#00E676">AGENT_VELOCITY_SPIKE</text>
    <rect x="380" y="116" width="160" height="10" rx="3" fill="#1C2A40"/>
    <rect x="380" y="116" width="134" height="10" rx="3" fill="#00E676"/>
    <text x="548" y="125" font-family="Arial" font-size="9" fill="#4A6080">84%</text>
    <rect x="560" y="116" width="160" height="10" rx="3" fill="#1C2A40"/>
    <rect x="560" y="116" width="128" height="10" rx="3" fill="#00E676"/>
    <text x="728" y="125" font-family="Arial" font-size="9" fill="#4A6080">80%</text>
    <rect x="740" y="116" width="60" height="10" rx="3" fill="#1C2A40"/>
    <rect x="740" y="116" width="49" height="10" rx="3" fill="#00E676"/>
    <text x="804" y="125" font-family="Arial" font-size="9" fill="#4A6080">82%</text>
    <text x="820" y="125" font-family="Arial" font-size="9" fill="#4A6080">64</text>
  </g>

  <!-- Score distribution chart -->
  <text x="20" y="408" font-family="Arial" font-weight="600" font-size="11" fill="#4A6080" letter-spacing="1">SCORE DISTRIBUTION — LAST 500 DECISIONS</text>
  <rect x="20" y="418" width="580" height="140" rx="10" fill="#0E1520" stroke="#1C2A40"/>
  <!-- Chart bars -->
  <g transform="translate(36, 430)">
    <text x="0" y="98" font-family="Arial" font-size="9" fill="#4A6080">0</text>
    <text x="0" y="10" font-family="Arial" font-size="9" fill="#4A6080">200</text>
    <line x1="20" y1="0" x2="20" y2="100" stroke="#1C2A40"/>
    <line x1="20" y1="100" x2="540" y2="100" stroke="#1C2A40"/>
    <!-- Bars: score buckets 0-10, 10-20, ... 90-100 -->
    <rect x="30" y="30" width="40" height="70" fill="#00E676" opacity="0.8"/>
    <rect x="80" y="10" width="40" height="90" fill="#00E676" opacity="0.9"/>
    <rect x="130" y="40" width="40" height="60" fill="#00E676" opacity="0.7"/>
    <rect x="180" y="60" width="40" height="40" fill="#00E676" opacity="0.5"/>
    <rect x="230" y="72" width="40" height="28" fill="#FFB300" opacity="0.7"/>
    <rect x="280" y="78" width="40" height="22" fill="#FFB300" opacity="0.8"/>
    <rect x="330" y="80" width="40" height="20" fill="#FF8800" opacity="0.7"/>
    <rect x="380" y="84" width="40" height="16" fill="#FF8800" opacity="0.8"/>
    <rect x="430" y="86" width="40" height="14" fill="#FF4444" opacity="0.7"/>
    <rect x="480" y="88" width="40" height="12" fill="#FF4444" opacity="0.9"/>
    <!-- Labels -->
    <text x="50" y="112" font-family="Arial" font-size="8" fill="#4A6080" text-anchor="middle">0–10</text>
    <text x="100" y="112" font-family="Arial" font-size="8" fill="#4A6080" text-anchor="middle">10–20</text>
    <text x="150" y="112" font-family="Arial" font-size="8" fill="#4A6080" text-anchor="middle">20–30</text>
    <text x="200" y="112" font-family="Arial" font-size="8" fill="#4A6080" text-anchor="middle">30–40</text>
    <text x="250" y="112" font-family="Arial" font-size="8" fill="#4A6080" text-anchor="middle">40–50</text>
    <text x="300" y="112" font-family="Arial" font-size="8" fill="#4A6080" text-anchor="middle">50–60</text>
    <text x="350" y="112" font-family="Arial" font-size="8" fill="#4A6080" text-anchor="middle">60–70</text>
    <text x="400" y="112" font-family="Arial" font-size="8" fill="#4A6080" text-anchor="middle">70–80</text>
    <text x="450" y="112" font-family="Arial" font-size="8" fill="#4A6080" text-anchor="middle">80–90</text>
    <text x="500" y="112" font-family="Arial" font-size="8" fill="#4A6080" text-anchor="middle">90–100</text>
  </g>

  <!-- Drift alerts -->
  <rect x="616" y="418" width="564" height="140" rx="10" fill="#0E1520" stroke="#1C2A40"/>
  <text x="632" y="438" font-family="Arial" font-weight="600" font-size="12" fill="#EAF1FB">Drift Alerts</text>
  <rect x="632" y="448" width="532" height="30" rx="6" fill="#FFB30010" stroke="#FFB30030"/>
  <text x="648" y="467" font-family="Arial" font-size="11" fill="#FFB300">⚠️  CBN_STRUCTURING triggering on 31% of recent transactions — above threshold</text>
  <rect x="632" y="486" width="532" height="30" rx="6" fill="#00E67208" stroke="#00E67625"/>
  <text x="648" y="505" font-family="Arial" font-size="11" fill="#00E676">✅  Score distribution stable — PSI 0.07 (threshold: 0.25)</text>
  <rect x="632" y="524" width="532" height="26" rx="6" fill="#00E67208" stroke="#00E67625"/>
  <text x="648" y="540" font-family="Arial" font-size="11" fill="#00E676">✅  Fraud rate 4.1% — elevated but below spike threshold (3× baseline = 6.9%)</text>

  <!-- Feedback loop -->
  <text x="20" y="588" font-family="Arial" font-weight="600" font-size="11" fill="#4A6080" letter-spacing="1">ANALYST FEEDBACK LOOP</text>
  <rect x="20" y="596" width="1160" height="62" rx="10" fill="#0E1520" stroke="#1C2A40"/>
  <text x="36" y="618" font-family="Arial" font-size="11" fill="#4A6080">Transaction ID</text>
  <rect x="36" y="624" width="200" height="24" rx="6" fill="#141E2E" stroke="#2A3F60"/>
  <text x="48" y="639" font-family="monospace" font-size="10" fill="#C8D6E8">TX-001</text>
  <text x="254" y="618" font-family="Arial" font-size="11" fill="#4A6080">Audit ID</text>
  <rect x="254" y="624" width="260" height="24" rx="6" fill="#141E2E" stroke="#2A3F60"/>
  <text x="266" y="639" font-family="monospace" font-size="10" fill="#C8D6E8">f47ac10b-58cc-4372</text>
  <text x="532" y="618" font-family="Arial" font-size="11" fill="#4A6080">Outcome</text>
  <rect x="532" y="624" width="200" height="24" rx="6" fill="#141E2E" stroke="#2A3F60"/>
  <text x="544" y="639" font-family="Arial" font-size="11" fill="#C8D6E8">fraud_confirmed ▾</text>
  <rect x="750" y="624" width="160" height="24" rx="6" fill="#00E676"/>
  <text x="830" y="639" font-family="Arial" font-weight="600" font-size="11" fill="#080C14" text-anchor="middle">Submit Feedback</text>
  <text x="936" y="630" font-family="Arial" font-size="10" fill="#4A6080">Total feedback: 89 · False positive rate: 0.8%</text>
  <text x="936" y="648" font-family="Arial" font-size="10" fill="#4A6080">Confirmed fraud: 71 · False positives: 4 · Rejected: 14</text>

  <!-- Bottom bar -->
  <text x="20" y="720" font-family="monospace" font-size="9" fill="#2A3F60">GET /api/fraud/drift · POST /api/fraud/feedback · PSI drift detection + signal performance + fraud rate monitoring</text>
  <text x="1180" y="720" font-family="monospace" font-size="9" fill="#2A3F60" text-anchor="end">NaijaFinAI v3.0</text>
</svg>
